<?xml version="1.0" encoding="utf-8"?>
<!-- Generator: Adobe Illustrator 19.0.1, SVG Export Plug-In . SVG Version: 6.00 Build 0)  -->
<svg version="1.1" id="Layer_1" xmlns="http://www.w3.org/2000/svg" xmlns:xlink="http://www.w3.org/1999/xlink" x="0px" y="0px"
	 viewBox="0 0 48 48" style="enable-background:new 0 0 48 48;" xml:space="preserve">
<g>
	<g>
		<path d="M24,48C10.8,48,0,37.2,0,24S10.8,0,24,0s24,10.8,24,24S37.2,48,24,48z M24,2C11.9,2,2,11.9,2,24s9.9,22,22,22
			s22-9.9,22-22S36.1,2,24,2z"/>
	</g>
	<g>
		<path d="M32.3,6.4l-4.6,0c-5.1,0-8.5,3.4-8.5,8.7v4h-4.6c-0.4,0-0.7,0.3-0.7,0.7v5.8c0,0.4,0.3,0.7,0.7,0.7h4.6v14.6
			c0,0.4,0.3,0.7,0.7,0.7h6c0.4,0,0.7-0.3,0.7-0.7V26.3h5.4c0.4,0,0.7-0.3,0.7-0.7l0-5.8c0-0.2-0.1-0.4-0.2-0.5
			c-0.1-0.1-0.3-0.2-0.5-0.2h-5.4v-3.4c0-1.6,0.4-2.5,2.5-2.5l3.1,0c0.4,0,0.7-0.3,0.7-0.7V7.1C33,6.7,32.7,6.4,32.3,6.4z"/>
	</g>
</g>
</svg>
