<?xml version="1.0" encoding="utf-8"?>
<!-- Generator: Adobe Illustrator 19.0.1, SVG Export Plug-In . SVG Version: 6.00 Build 0)  -->
<svg version="1.1" id="Layer_1" xmlns="http://www.w3.org/2000/svg" xmlns:xlink="http://www.w3.org/1999/xlink" x="0px" y="0px"
	 viewBox="0 0 48 48" style="enable-background:new 0 0 48 48;" xml:space="preserve">
<g>
	<path d="M24,48C10.8,48,0,37.2,0,24S10.8,0,24,0s24,10.8,24,24S37.2,48,24,48z M24,2C11.9,2,2,11.9,2,24s9.9,22,22,22s22-9.9,22-22
		S36.1,2,24,2z"/>
</g>
<g>
	<path d="M34.5,9.5H13.5c-2.2,0-3.9,1.8-3.9,3.9v21.1c0,2.2,1.8,3.9,3.9,3.9h21.1c2.2,0,3.9-1.8,3.9-3.9V13.5
		C38.5,11.3,36.7,9.5,34.5,9.5z M24,31.1c-3.6,0-6.5-2.9-6.5-6.5c0-3.6,2.9-6.5,6.5-6.5s6.5,2.9,6.5,6.5
		C30.5,28.2,27.6,31.1,24,31.1z M36,19.8h-5.9c-1.5-1.8-3.7-2.9-6.2-2.9s-4.7,1.1-6.2,2.9H12v-5.6c0-1.4,1.2-2.6,2.6-2.6h18.9
		c1.4,0,2.6,1.2,2.6,2.6L36,19.8L36,19.8z"/>
	<path d="M24,20.4c-2.3,0-4.2,1.9-4.2,4.2c0,2.3,1.9,4.2,4.2,4.2s4.2-1.9,4.2-4.2C28.2,22.3,26.3,20.4,24,20.4z"/>
	<path d="M32.8,13.3h-2.5c-0.6,0-1,0.5-1,1v2.5c0,0.6,0.5,1,1,1h2.5c0.6,0,1-0.5,1-1v-2.5C33.9,13.7,33.4,13.3,32.8,13.3z"/>
</g>
</svg>
