<?xml version="1.0" encoding="utf-8"?>
<!-- Generator: Adobe Illustrator 19.0.1, SVG Export Plug-In . SVG Version: 6.00 Build 0)  -->
<svg version="1.1" id="Layer_1" xmlns="http://www.w3.org/2000/svg" xmlns:xlink="http://www.w3.org/1999/xlink" x="0px" y="0px"
	 viewBox="-494.3 228 164 106" style="enable-background:new -494.3 228 164 106;" xml:space="preserve">
<style type="text/css">
	.st0{fill:#272929;}
	.st1{fill:#6B9E3D;}
</style>
<g>
	<g>
		<g>
			<path class="st0" d="M-457.5,251.5c0.5-0.7,0.9-1.1,1.2-1.6c2-2.8,3-4.6,2.7-5.3l-0.1-0.2c-0.1-0.1-0.3-0.2-0.6-0.3
				s-0.7-0.1-1.1,0h-5.2c-0.1,0-0.3,0-0.4,0c-0.1,0-0.2,0-0.3,0.1h-0.1l-0.1,0.1c-0.1,0-0.1,0.1-0.2,0.2c-0.1,0.1-0.1,0.2-0.2,0.3
				c-0.6,1.5-1.2,2.8-2,4.1c-0.5,0.7-0.8,1.4-1.2,2c-0.4,0.6-0.7,0.9-0.9,1.2c-0.3,0.3-0.5,0.5-0.7,0.7c-0.2,0.2-0.4,0.2-0.5,0.2
				c-0.1,0-0.2-0.1-0.3-0.1c-0.2-0.1-0.3-0.3-0.4-0.5c-0.1-0.2-0.2-0.5-0.2-0.7s-0.1-0.6-0.1-0.7c0-0.2,0-0.5,0-0.8
				c0-0.4,0-0.7,0-0.7c0-0.5,0-0.9,0-1.5s0-0.9,0-1.3c0-0.3,0-0.7,0-1s0-0.7-0.1-0.8c0-0.2-0.1-0.4-0.2-0.6
				c-0.1-0.2-0.2-0.4-0.4-0.5s-0.4-0.2-0.7-0.3c-0.7-0.2-1.5-0.2-2.4-0.3c-2.2,0-3.7,0.1-4.4,0.5c-0.3,0.1-0.5,0.3-0.7,0.6
				s-0.3,0.4-0.1,0.5c0.7,0.1,1.2,0.4,1.6,0.7l0.1,0.2c0.1,0.2,0.2,0.5,0.3,0.8s0.1,0.8,0.2,1.3c0.1,0.8,0.1,1.7,0,2.2
				c-0.1,0.7-0.1,1.1-0.2,1.5c-0.1,0.4-0.1,0.7-0.3,0.8c-0.1,0.2-0.2,0.4-0.2,0.4c0,0.1-0.1,0.1-0.1,0.1c-0.2,0.1-0.3,0.1-0.5,0.1
				c-0.2,0-0.4-0.1-0.7-0.3c-0.3-0.2-0.5-0.4-0.7-0.7c-0.3-0.3-0.6-0.7-0.8-1.2c-0.4-0.6-0.7-1.1-1-1.9l-0.4-0.3
				c-0.2-0.4-0.5-0.8-0.7-1.5c-0.3-0.7-0.6-1.3-0.8-1.9c-0.1-0.3-0.3-0.5-0.5-0.6l-0.1-0.1c-0.1-0.1-0.2-0.1-0.3-0.2
				c-0.1-0.1-0.3-0.1-0.4-0.1h-4.9c-0.5,0-0.8,0.1-1,0.4l-0.1,0.1c0,0.1-0.1,0.2-0.1,0.3s0,0.3,0.1,0.5c0.7,1.7,1.5,3.3,2.3,4.9
				c0.8,1.6,1.6,2.9,2.2,3.8c0.7,0.9,1.3,1.9,2,2.7c0.7,0.8,1.1,1.4,1.3,1.7c0.2,0.3,0.4,0.5,0.5,0.6l0.5,0.5c0.3,0.3,0.7,0.7,1.3,1
				c0.6,0.4,1.2,0.8,1.9,1.2c0.7,0.4,1.5,0.7,2.4,0.9c0.9,0.3,1.8,0.4,2.6,0.3h2c0.5,0,0.7-0.2,0.9-0.4l0.1-0.1
				c0.1-0.1,0.1-0.2,0.1-0.4s0.1-0.3,0.1-0.5c0-0.6,0-1,0.1-1.4c0.1-0.4,0.2-0.7,0.3-0.9c0.1-0.2,0.3-0.4,0.4-0.6
				c0.2-0.2,0.3-0.2,0.3-0.3c0.1,0,0.1-0.1,0.2-0.1c0.3-0.1,0.7,0,1,0.3c0.4,0.3,0.7,0.7,1.1,1c0.4,0.4,0.7,0.9,1.2,1.4
				c0.5,0.6,0.9,0.9,1.3,1.1l0.4,0.2c0.3,0.2,0.6,0.3,0.9,0.4c0.4,0.1,0.7,0.2,1,0.1l4.6-0.1c0.5,0,0.8-0.1,1.1-0.2
				c0.3-0.2,0.4-0.3,0.5-0.5s0.1-0.4,0-0.7c0-0.2-0.1-0.4-0.1-0.5s-0.1-0.2-0.1-0.2c-0.7-1.1-1.8-2.4-3.4-4l0,0l0,0l0,0l0,0
				c-0.7-0.7-1.3-1.2-1.5-1.5c-0.4-0.5-0.5-0.9-0.3-1.5C-459,253.5-458.4,252.7-457.5,251.5z"/>
		</g>
	</g>
</g>
<path class="st0" d="M-470.3,231c11.6,0,21,9.4,21,21s-9.4,21-21,21s-21-9.4-21-21S-481.8,231-470.3,231 M-470.3,228
	c-13.3,0-24,10.7-24,24c0,13.3,10.7,24,24,24c13.3,0,24-10.7,24-24C-446.3,238.7-457,228-470.3,228L-470.3,228z"/>
<g>
	<g>
		<g>
			<path class="st1" d="M-457.5,309.5c0.5-0.7,0.9-1.1,1.2-1.6c2-2.8,3-4.6,2.7-5.3l-0.1-0.2c-0.1-0.1-0.3-0.2-0.6-0.3
				c-0.3-0.1-0.7-0.1-1.1,0h-5.2c-0.1,0-0.3,0-0.4,0c-0.1,0-0.2,0-0.3,0.1h-0.1l-0.1,0.1c-0.1,0-0.1,0.1-0.2,0.2
				c-0.1,0.1-0.1,0.2-0.2,0.3c-0.6,1.5-1.2,2.8-2,4.1c-0.5,0.7-0.8,1.4-1.2,2c-0.4,0.6-0.7,0.9-0.9,1.2c-0.3,0.3-0.5,0.5-0.7,0.7
				s-0.4,0.2-0.5,0.2c-0.1,0-0.2-0.1-0.3-0.1c-0.2-0.1-0.3-0.3-0.4-0.5s-0.2-0.5-0.2-0.7s-0.1-0.6-0.1-0.7s0-0.5,0-0.8
				c0-0.4,0-0.7,0-0.7c0-0.5,0-0.9,0-1.5c0-0.6,0-0.9,0-1.3c0-0.3,0-0.7,0-1c0-0.4,0-0.7-0.1-0.8c0-0.2-0.1-0.4-0.2-0.6
				c-0.1-0.2-0.2-0.4-0.4-0.5c-0.2-0.1-0.4-0.2-0.7-0.3c-0.7-0.2-1.5-0.2-2.4-0.3c-2.2,0-3.7,0.1-4.4,0.5c-0.3,0.1-0.5,0.3-0.7,0.6
				c-0.2,0.3-0.3,0.4-0.1,0.5c0.7,0.1,1.2,0.4,1.6,0.7l0.1,0.2c0.1,0.2,0.2,0.5,0.3,0.8c0.1,0.4,0.1,0.8,0.2,1.3
				c0.1,0.8,0.1,1.7,0,2.2c-0.1,0.7-0.1,1.1-0.2,1.5c-0.1,0.4-0.1,0.7-0.3,0.8c-0.1,0.2-0.2,0.4-0.2,0.4c0,0.1-0.1,0.1-0.1,0.1
				c-0.2,0.1-0.3,0.1-0.5,0.1c-0.2,0-0.4-0.1-0.7-0.3c-0.3-0.2-0.5-0.4-0.7-0.7c-0.3-0.3-0.6-0.7-0.8-1.2c-0.4-0.6-0.7-1.1-1-1.9
				l-0.4-0.3c-0.2-0.4-0.5-0.8-0.7-1.5c-0.3-0.7-0.6-1.3-0.8-1.9c-0.1-0.3-0.3-0.5-0.5-0.6l-0.1-0.1c-0.1-0.1-0.2-0.1-0.3-0.2
				c-0.1-0.1-0.3-0.1-0.4-0.1h-4.9c-0.5,0-0.8,0.1-1,0.4l-0.1,0.1c0,0.1-0.1,0.2-0.1,0.3c0,0.1,0,0.3,0.1,0.5
				c0.7,1.7,1.5,3.3,2.3,4.9c0.8,1.6,1.6,2.9,2.2,3.8c0.7,0.9,1.3,1.9,2,2.7s1.1,1.4,1.3,1.7c0.2,0.3,0.4,0.5,0.5,0.6l0.5,0.5
				c0.3,0.3,0.7,0.7,1.3,1c0.6,0.4,1.2,0.8,1.9,1.2c0.7,0.4,1.5,0.7,2.4,0.9c0.9,0.3,1.8,0.4,2.6,0.3h2c0.5,0,0.7-0.2,0.9-0.4
				l0.1-0.1c0.1-0.1,0.1-0.2,0.1-0.4s0.1-0.3,0.1-0.5c0-0.6,0-1,0.1-1.4c0.1-0.4,0.2-0.7,0.3-0.9c0.1-0.2,0.3-0.4,0.4-0.6
				c0.2-0.2,0.3-0.2,0.3-0.3c0.1,0,0.1-0.1,0.2-0.1c0.3-0.1,0.7,0,1,0.3c0.4,0.3,0.7,0.7,1.1,1c0.4,0.4,0.7,0.9,1.2,1.4
				c0.5,0.6,0.9,0.9,1.3,1.1l0.4,0.2c0.3,0.2,0.6,0.3,0.9,0.4c0.4,0.1,0.7,0.2,1,0.1l4.6-0.1c0.5,0,0.8-0.1,1.1-0.2
				c0.3-0.2,0.4-0.3,0.5-0.5s0.1-0.4,0-0.7c0-0.2-0.1-0.4-0.1-0.5s-0.1-0.2-0.1-0.2c-0.7-1.1-1.8-2.4-3.4-4l0,0l0,0l0,0l0,0
				c-0.7-0.7-1.3-1.2-1.5-1.5c-0.4-0.5-0.5-0.9-0.3-1.5C-459,311.5-458.4,310.7-457.5,309.5z"/>
		</g>
	</g>
</g>
<path class="st1" d="M-470.3,289c11.6,0,21,9.4,21,21s-9.4,21-21,21s-21-9.4-21-21S-481.8,289-470.3,289 M-470.3,286
	c-13.3,0-24,10.7-24,24c0,13.3,10.7,24,24,24c13.3,0,24-10.7,24-24C-446.3,296.7-457,286-470.3,286L-470.3,286z"/>
<g>
	<path class="st0" d="M-412.3,231c11.6,0,21,9.4,21,21s-9.4,21-21,21s-21-9.4-21-21S-423.8,231-412.3,231 M-412.3,228
		c-13.3,0-24,10.7-24,24c0,13.3,10.7,24,24,24c13.3,0,24-10.7,24-24C-388.3,238.7-399,228-412.3,228L-412.3,228z"/>
	<g>
		<path class="st0" d="M-402.7,238.8h-19.1c-2,0-3.6,1.6-3.6,3.6v19.2c0,2,1.6,3.6,3.6,3.6h19.2c2,0,3.6-1.6,3.6-3.6v-19.1
			C-399.1,240.4-400.7,238.8-402.7,238.8z M-412.3,258.5c-3.3,0-5.9-2.6-5.9-5.9c0-3.3,2.6-5.9,5.9-5.9s5.9,2.6,5.9,5.9
			C-406.4,255.8-409,258.5-412.3,258.5z M-401.4,248.2h-5.4c-1.4-1.6-3.4-2.6-5.6-2.6s-4.3,1-5.7,2.6h-5.2v-5.1
			c0-1.3,1.1-2.4,2.4-2.4h17.2c1.3,0,2.4,1.1,2.4,2.4L-401.4,248.2L-401.4,248.2z"/>
		<path class="st0" d="M-412.3,248.7c-2.1,0-3.8,1.7-3.8,3.8c0,2.1,1.7,3.8,3.8,3.8s3.8-1.7,3.8-3.8
			C-408.5,250.5-410.2,248.7-412.3,248.7z"/>
		<path class="st0" d="M-404.3,242.3h-2.3c-0.5,0-0.9,0.5-0.9,0.9v2.3c0,0.5,0.5,0.9,0.9,0.9h2.3c0.5,0,0.9-0.5,0.9-0.9v-2.3
			C-403.3,242.6-403.7,242.3-404.3,242.3z"/>
	</g>
</g>
<g>
	<path class="st1" d="M-412.3,289c11.6,0,21,9.4,21,21s-9.4,21-21,21s-21-9.4-21-21S-423.8,289-412.3,289 M-412.3,286
		c-13.3,0-24,10.7-24,24c0,13.3,10.7,24,24,24c13.3,0,24-10.7,24-24C-388.3,296.7-399,286-412.3,286L-412.3,286z"/>
	<g>
		<path class="st1" d="M-402.7,296.8h-19.1c-2,0-3.6,1.6-3.6,3.6v19.2c0,2,1.6,3.6,3.6,3.6h19.2c2,0,3.6-1.6,3.6-3.6v-19.1
			C-399.1,298.4-400.7,296.8-402.7,296.8z M-412.3,316.5c-3.3,0-5.9-2.6-5.9-5.9s2.6-5.9,5.9-5.9s5.9,2.6,5.9,5.9
			S-409,316.5-412.3,316.5z M-401.4,306.2h-5.4c-1.4-1.6-3.4-2.6-5.6-2.6s-4.3,1-5.7,2.6h-5.2v-5.1c0-1.3,1.1-2.4,2.4-2.4h17.2
			c1.3,0,2.4,1.1,2.4,2.4L-401.4,306.2L-401.4,306.2z"/>
		<path class="st1" d="M-412.3,307.7c-2.1,0-3.8,1.7-3.8,3.8c0,2.1,1.7,3.8,3.8,3.8s3.8-1.7,3.8-3.8
			C-408.5,309.5-410.2,307.7-412.3,307.7z"/>
		<path class="st1" d="M-404.3,301.3h-2.3c-0.5,0-0.9,0.5-0.9,0.9v2.3c0,0.5,0.5,0.9,0.9,0.9h2.3c0.5,0,0.9-0.5,0.9-0.9v-2.3
			C-403.3,301.6-403.7,301.3-404.3,301.3z"/>
	</g>
</g>
<g>
	<path class="st0" d="M-354.3,231c11.6,0,21,9.4,21,21s-9.4,21-21,21s-21-9.4-21-21S-365.8,231-354.3,231 M-354.3,228
		c-13.3,0-24,10.7-24,24c0,13.3,10.7,24,24,24c13.3,0,24-10.7,24-24C-330.3,238.7-341,228-354.3,228L-354.3,228z"/>
	<g>
		<path class="st0" d="M-347,237.6h-3.7c-4.2,0-6.9,2.8-6.9,7.1v3.3h-3.7c-0.3,0-0.6,0.2-0.6,0.6v4.7c0,0.3,0.2,0.6,0.6,0.6h3.7
			v11.9c0,0.3,0.2,0.6,0.6,0.6h4.9c0.3,0,0.6-0.2,0.6-0.6v-11.9h4.4c0.3,0,0.6-0.2,0.6-0.6v-4.7c0-0.2-0.1-0.3-0.2-0.4
			c-0.1-0.1-0.2-0.2-0.4-0.2h-4.4v-2.8c0-1.3,0.3-2,2-2h2.5c0.3,0,0.6-0.2,0.6-0.6v-4.4C-346.4,237.9-346.7,237.6-347,237.6z"/>
	</g>
</g>
<g>
	<path class="st1" d="M-354.3,289c11.6,0,21,9.4,21,21s-9.4,21-21,21s-21-9.4-21-21S-365.8,289-354.3,289 M-354.3,286
		c-13.3,0-24,10.7-24,24c0,13.3,10.7,24,24,24c13.3,0,24-10.7,24-24C-330.3,296.7-341,286-354.3,286L-354.3,286z"/>
	<g>
		<path class="st1" d="M-347,295.6h-3.7c-4.2,0-6.9,2.8-6.9,7.1v3.3h-3.7c-0.3,0-0.6,0.2-0.6,0.6v4.7c0,0.3,0.2,0.6,0.6,0.6h3.7
			v11.9c0,0.3,0.2,0.6,0.6,0.6h4.9c0.3,0,0.6-0.2,0.6-0.6v-11.9h4.4c0.3,0,0.6-0.2,0.6-0.6v-4.7c0-0.2-0.1-0.3-0.2-0.4
			c-0.1-0.1-0.2-0.2-0.4-0.2h-4.4v-2.8c0-1.3,0.3-2,2-2h2.5c0.3,0,0.6-0.2,0.6-0.6v-4.4C-346.4,295.9-346.7,295.6-347,295.6z"/>
	</g>
</g>
</svg>
