<svg id="SvgjsSvg1000" xmlns="http://www.w3.org/2000/svg" version="1.1" xmlns:xlink="http://www.w3.org/1999/xlink" xmlns:svgjs="http://svgjs.com/svgjs" width="32" height="95" viewBox="0 0 32 95"><title>Forma 1</title><desc>Created with Avocode.</desc><defs id="SvgjsDefs1001"><clipPath id="SvgjsClipPath1010"><path id="SvgjsPath1009" d="M652.957 2532.83V2532.8199999999997C652.956 2532.8199999999997 652.955 2532.8199999999997 652.953 2532.8099999999995C652.9119999999999 2532.5099999999993 652.8 2532.2099999999996 652.658 2531.9299999999994C652.615 2531.8399999999992 652.567 2531.7699999999995 652.516 2531.6899999999996C652.391 2531.49 652.2429999999999 2531.2999999999997 652.068 2531.1299999999997C652.006 2531.0699999999997 651.951 2530.9999999999995 651.88 2530.9399999999996C651.844 2530.9099999999994 651.82 2530.8799999999997 651.784 2530.8499999999995C651.561 2530.6799999999994 651.318 2530.5399999999995 651.069 2530.4399999999996C651.044 2530.4199999999996 651.015 2530.4299999999994 650.9889999999999 2530.4099999999994C650.708 2530.3099999999995 650.4229999999999 2530.2599999999993 650.136 2530.2399999999993C650.0949999999999 2530.2399999999993 650.058 2530.2199999999993 650.0169999999999 2530.209999999999L631.276 2530.0099999999993C629.841 2529.9899999999993 628.827 2531.129999999999 629.012 2532.5599999999995C629.198 2533.9899999999993 630.512 2535.1599999999994 631.9499999999999 2535.1699999999996L642.054 2535.2799999999997C634.838 2541.6899999999996 630.204 2550.14 629.9879999999999 2550.54C614.9599999999999 2575.98 621.742 2609.16 645.106 2624.49C646.263 2625.25 647.668 2625.12 648.432 2624.2299999999996C648.514 2624.1399999999994 648.588 2624.0399999999995 648.655 2623.9299999999994C649.3349999999999 2622.7699999999995 648.85 2621.1599999999994 647.572 2620.3199999999993C626.7620000000001 2606.6599999999994 620.95 2576.7199999999993 634.657 2553.5099999999993C634.715 2553.399999999999 639.5 2544.669999999999 646.57 2538.689999999999L644.485 2550.2799999999993C644.241 2551.6399999999994 645.202 2553.0899999999992 646.629 2553.5299999999993C648.056 2553.9699999999993 649.405 2553.209999999999 649.657 2551.859999999999L652.9440000000001 2533.579999999999C652.9860000000001 2533.3399999999992 652.989 2533.079999999999 652.9570000000001 2532.829999999999Z " fill="#ffffff"></path></clipPath></defs><path id="SvgjsPath1007" d="M652.957 2532.83V2532.8199999999997C652.956 2532.8199999999997 652.955 2532.8199999999997 652.953 2532.8099999999995C652.9119999999999 2532.5099999999993 652.8 2532.2099999999996 652.658 2531.9299999999994C652.615 2531.8399999999992 652.567 2531.7699999999995 652.516 2531.6899999999996C652.391 2531.49 652.2429999999999 2531.2999999999997 652.068 2531.1299999999997C652.006 2531.0699999999997 651.951 2530.9999999999995 651.88 2530.9399999999996C651.844 2530.9099999999994 651.82 2530.8799999999997 651.784 2530.8499999999995C651.561 2530.6799999999994 651.318 2530.5399999999995 651.069 2530.4399999999996C651.044 2530.4199999999996 651.015 2530.4299999999994 650.9889999999999 2530.4099999999994C650.708 2530.3099999999995 650.4229999999999 2530.2599999999993 650.136 2530.2399999999993C650.0949999999999 2530.2399999999993 650.058 2530.2199999999993 650.0169999999999 2530.209999999999L631.276 2530.0099999999993C629.841 2529.9899999999993 628.827 2531.129999999999 629.012 2532.5599999999995C629.198 2533.9899999999993 630.512 2535.1599999999994 631.9499999999999 2535.1699999999996L642.054 2535.2799999999997C634.838 2541.6899999999996 630.204 2550.14 629.9879999999999 2550.54C614.9599999999999 2575.98 621.742 2609.16 645.106 2624.49C646.263 2625.25 647.668 2625.12 648.432 2624.2299999999996C648.514 2624.1399999999994 648.588 2624.0399999999995 648.655 2623.9299999999994C649.3349999999999 2622.7699999999995 648.85 2621.1599999999994 647.572 2620.3199999999993C626.7620000000001 2606.6599999999994 620.95 2576.7199999999993 634.657 2553.5099999999993C634.715 2553.399999999999 639.5 2544.669999999999 646.57 2538.689999999999L644.485 2550.2799999999993C644.241 2551.6399999999994 645.202 2553.0899999999992 646.629 2553.5299999999993C648.056 2553.9699999999993 649.405 2553.209999999999 649.657 2551.859999999999L652.9440000000001 2533.579999999999C652.9860000000001 2533.3399999999992 652.989 2533.079999999999 652.9570000000001 2532.829999999999Z " fill="#333333" fill-opacity="1" transform="matrix(1,0,0,1,-621,-2530)"></path><path id="SvgjsPath1008" d="M652.957 2532.83V2532.8199999999997C652.956 2532.8199999999997 652.955 2532.8199999999997 652.953 2532.8099999999995C652.9119999999999 2532.5099999999993 652.8 2532.2099999999996 652.658 2531.9299999999994C652.615 2531.8399999999992 652.567 2531.7699999999995 652.516 2531.6899999999996C652.391 2531.49 652.2429999999999 2531.2999999999997 652.068 2531.1299999999997C652.006 2531.0699999999997 651.951 2530.9999999999995 651.88 2530.9399999999996C651.844 2530.9099999999994 651.82 2530.8799999999997 651.784 2530.8499999999995C651.561 2530.6799999999994 651.318 2530.5399999999995 651.069 2530.4399999999996C651.044 2530.4199999999996 651.015 2530.4299999999994 650.9889999999999 2530.4099999999994C650.708 2530.3099999999995 650.4229999999999 2530.2599999999993 650.136 2530.2399999999993C650.0949999999999 2530.2399999999993 650.058 2530.2199999999993 650.0169999999999 2530.209999999999L631.276 2530.0099999999993C629.841 2529.9899999999993 628.827 2531.129999999999 629.012 2532.5599999999995C629.198 2533.9899999999993 630.512 2535.1599999999994 631.9499999999999 2535.1699999999996L642.054 2535.2799999999997C634.838 2541.6899999999996 630.204 2550.14 629.9879999999999 2550.54C614.9599999999999 2575.98 621.742 2609.16 645.106 2624.49C646.263 2625.25 647.668 2625.12 648.432 2624.2299999999996C648.514 2624.1399999999994 648.588 2624.0399999999995 648.655 2623.9299999999994C649.3349999999999 2622.7699999999995 648.85 2621.1599999999994 647.572 2620.3199999999993C626.7620000000001 2606.6599999999994 620.95 2576.7199999999993 634.657 2553.5099999999993C634.715 2553.399999999999 639.5 2544.669999999999 646.57 2538.689999999999L644.485 2550.2799999999993C644.241 2551.6399999999994 645.202 2553.0899999999992 646.629 2553.5299999999993C648.056 2553.9699999999993 649.405 2553.209999999999 649.657 2551.859999999999L652.9440000000001 2533.579999999999C652.9860000000001 2533.3399999999992 652.989 2533.079999999999 652.9570000000001 2532.829999999999Z " fill-opacity="0" fill="#ffffff" stroke-dashoffset="0" stroke-linejoin="round" stroke-linecap="round" stroke-opacity="1" stroke="#ffffff" stroke-miterlimit="50" stroke-width="2" clip-path="url(&quot;#SvgjsClipPath1010&quot;)" transform="matrix(1,0,0,1,-621,-2530)"></path></svg>