<?xml version="1.0" encoding="utf-8"?>
<!-- Generator: Adobe Illustrator 19.0.1, SVG Export Plug-In . SVG Version: 6.00 Build 0)  -->
<svg version="1.1" id="Layer_1" xmlns="http://www.w3.org/2000/svg" xmlns:xlink="http://www.w3.org/1999/xlink" x="0px" y="0px"
	 viewBox="0 0 48 48" style="enable-background:new 0 0 48 48;" xml:space="preserve">
	 
<style type="text/css">
	.st0{fill:#6b9e3d;}
</style>

<g>
	<g>
		<g>
			<g>
				<path class="st0" d="M37.8,23.4c0.5-0.7,1-1.2,1.3-1.7c2.2-3,3.2-4.9,2.9-5.7l-0.1-0.2c-0.1-0.1-0.3-0.2-0.6-0.3c-0.3-0.1-0.7-0.1-1.2,0
					l-5.6,0c-0.1,0-0.3,0-0.4,0c-0.1,0-0.2,0-0.3,0.1c0,0-0.1,0-0.1,0l-0.1,0.1c-0.1,0-0.1,0.1-0.2,0.2c-0.1,0.1-0.1,0.2-0.2,0.3
					c-0.6,1.6-1.3,3-2.1,4.4c-0.5,0.8-0.9,1.5-1.3,2.1c-0.4,0.6-0.7,1-1,1.3c-0.3,0.3-0.5,0.5-0.7,0.7c-0.2,0.2-0.4,0.2-0.5,0.2
					c-0.1,0-0.2-0.1-0.3-0.1c-0.2-0.1-0.3-0.3-0.4-0.5c-0.1-0.2-0.2-0.5-0.2-0.8c0-0.3-0.1-0.6-0.1-0.8c0-0.2,0-0.5,0-0.9
					c0-0.4,0-0.7,0-0.8c0-0.5,0-1,0-1.6c0-0.6,0-1,0-1.4c0-0.3,0-0.7,0-1.1c0-0.4,0-0.7-0.1-0.9c0-0.2-0.1-0.4-0.2-0.6
					c-0.1-0.2-0.2-0.4-0.4-0.5c-0.2-0.1-0.4-0.2-0.7-0.3c-0.7-0.2-1.6-0.2-2.6-0.3c-2.4,0-4,0.1-4.7,0.5c-0.3,0.1-0.5,0.3-0.7,0.6
					c-0.2,0.3-0.3,0.4-0.1,0.5c0.8,0.1,1.3,0.4,1.7,0.8l0.1,0.2c0.1,0.2,0.2,0.5,0.3,0.9c0.1,0.4,0.1,0.9,0.2,1.4
					c0.1,0.9,0.1,1.8,0,2.4c-0.1,0.7-0.1,1.2-0.2,1.6c-0.1,0.4-0.1,0.7-0.3,0.9c-0.1,0.2-0.2,0.4-0.2,0.4c0,0.1-0.1,0.1-0.1,0.1
					c-0.2,0.1-0.3,0.1-0.5,0.1c-0.2,0-0.4-0.1-0.7-0.3c-0.3-0.2-0.5-0.4-0.8-0.8c-0.3-0.3-0.6-0.8-0.9-1.3c-0.4-0.6-0.7-1.2-1.1-2
					L14.2,20c-0.2-0.4-0.5-0.9-0.8-1.6c-0.3-0.7-0.6-1.4-0.9-2c-0.1-0.3-0.3-0.5-0.5-0.6l-0.1-0.1c-0.1-0.1-0.2-0.1-0.3-0.2
					c-0.1-0.1-0.3-0.1-0.4-0.1l-5.3,0c-0.5,0-0.9,0.1-1.1,0.4l-0.1,0.1c0,0.1-0.1,0.2-0.1,0.3c0,0.1,0,0.3,0.1,0.5
					c0.8,1.8,1.6,3.6,2.5,5.3c0.9,1.7,1.7,3.1,2.4,4.1c0.7,1,1.4,2,2.1,2.9s1.2,1.5,1.4,1.8c0.2,0.3,0.4,0.5,0.5,0.6l0.5,0.5
					c0.3,0.3,0.8,0.7,1.4,1.1c0.6,0.4,1.3,0.9,2,1.3c0.7,0.4,1.6,0.8,2.6,1c1,0.3,1.9,0.4,2.8,0.3h2.2c0.5,0,0.8-0.2,1-0.4l0.1-0.1
					c0.1-0.1,0.1-0.2,0.1-0.4c0-0.2,0.1-0.3,0.1-0.5c0-0.6,0-1.1,0.1-1.5c0.1-0.4,0.2-0.8,0.3-1c0.1-0.2,0.3-0.4,0.4-0.6
					c0.2-0.2,0.3-0.2,0.3-0.3c0.1,0,0.1-0.1,0.2-0.1c0.3-0.1,0.7,0,1.1,0.3c0.4,0.3,0.8,0.7,1.2,1.1c0.4,0.4,0.8,1,1.3,1.5
					c0.5,0.6,1,1,1.4,1.2l0.4,0.2c0.3,0.2,0.6,0.3,1,0.4c0.4,0.1,0.8,0.2,1.1,0.1l5-0.1c0.5,0,0.9-0.1,1.2-0.2
					c0.3-0.2,0.4-0.3,0.5-0.5c0.1-0.2,0.1-0.4,0-0.7c0-0.2-0.1-0.4-0.1-0.5c0-0.1-0.1-0.2-0.1-0.2c-0.7-1.2-1.9-2.6-3.7-4.3l0,0l0,0
					l0,0h0c-0.8-0.8-1.4-1.3-1.6-1.6c-0.4-0.5-0.5-1-0.3-1.6C36.2,25.5,36.8,24.7,37.8,23.4z"/>
			</g>
		</g>
	</g>
	<g>
		<path class="st0" d="M24,48C10.8,48,0,37.2,0,24S10.8,0,24,0s24,10.8,24,24S37.2,48,24,48z M24,2C11.9,2,2,11.9,2,24s9.9,22,22,22
			s22-9.9,22-22S36.1,2,24,2z"/>
	</g>
</g>
</svg>
