<?xml version="1.0" encoding="utf-8"?>
<!-- Generator: Adobe Illustrator 19.0.1, SVG Export Plug-In . SVG Version: 6.00 Build 0)  -->
<svg version="1.1" id="Layer_2" xmlns="http://www.w3.org/2000/svg" xmlns:xlink="http://www.w3.org/1999/xlink" x="0px" y="0px"
	 viewBox="0 0 156 156" style="enable-background:new 0 0 156 156;" xml:space="preserve">
<style type="text/css">
	.st0{fill:#ffffff;}
</style>
<g>
	<g>
		<path class="st0" d="M78,156c-43,0-78-35-78-78S35,0,78,0s78,35,78,78S121,156,78,156z M78,4C37.2,4,4,37.2,4,78c0,40.8,33.2,74,74,74
			s74-33.2,74-74C152,37.2,118.8,4,78,4z"/>
	</g>
	<g>
		<path class="st0" d="M78,87.2c-5.4,0-9.9-4.4-9.9-9.9s4.4-9.9,9.9-9.9s9.9,4.4,9.9,9.9S83.5,87.2,78,87.2z M78,71.5c-3.2,0-5.8,2.6-5.8,5.8
			c0,3.2,2.6,5.8,5.8,5.8c3.2,0,5.8-2.6,5.8-5.8C83.9,74.1,81.3,71.5,78,71.5z"/>
	</g>
	<g>
		<path class="st0" d="M77.8,27.2c-1.1,0-2-0.9-2-2v-7.8c0-1.1,0.9-2,2-2s2,0.9,2,2v7.8C79.8,26.3,78.9,27.2,77.8,27.2z"/>
	</g>
	<g>
		<path class="st0" d="M41,42.6c-0.5,0-1-0.2-1.4-0.6L34,36.5c-0.8-0.8-0.8-2.1,0-2.8c0.8-0.8,2.1-0.8,2.8,0l5.5,5.5c0.8,0.8,0.8,2.1,0,2.8
			C42,42.4,41.5,42.6,41,42.6z"/>
	</g>
	<g>
		<path class="st0" d="M25.9,79.6h-7.8c-1.1,0-2-0.9-2-2s0.9-2,2-2h7.8c1.1,0,2,0.9,2,2S27,79.6,25.9,79.6z"/>
	</g>
	<g>
		<path class="st0" d="M35.8,121.9c-0.5,0-1-0.2-1.4-0.6c-0.8-0.8-0.8-2.1,0-2.8l5.5-5.5c0.8-0.8,2.1-0.8,2.8,0c0.8,0.8,0.8,2.1,0,2.8l-5.5,5.5
			C36.8,121.7,36.3,121.9,35.8,121.9z"/>
	</g>
	<g>
		<path class="st0" d="M78.3,139.3c-1.1,0-2-0.9-2-2v-7.8c0-1.1,0.9-2,2-2s2,0.9,2,2v7.8C80.3,138.4,79.4,139.3,78.3,139.3z"/>
	</g>
	<g>
		<path class="st0" d="M120.6,121.6c-0.5,0-1-0.2-1.4-0.6l-5.5-5.5c-0.8-0.8-0.8-2.1,0-2.8c0.8-0.8,2.1-0.8,2.8,0l5.5,5.5c0.8,0.8,0.8,2.1,0,2.8
			C121.7,121.4,121.1,121.6,120.6,121.6z"/>
	</g>
	<g>
		<path class="st0" d="M138,79.1h-7.8c-1.1,0-2-0.9-2-2s0.9-2,2-2h7.8c1.1,0,2,0.9,2,2S139.1,79.1,138,79.1z"/>
	</g>
	<g>
		<path class="st0" d="M114.7,42.3c-0.5,0-1-0.2-1.4-0.6c-0.8-0.8-0.8-2.1,0-2.8l5.5-5.5c0.8-0.8,2.1-0.8,2.8,0c0.8,0.8,0.8,2.1,0,2.8l-5.5,5.5
			C115.8,42.1,115.3,42.3,114.7,42.3z"/>
	</g>
	<g>
		<path class="st0" d="M78,71.5c-1.1,0-2-0.9-2-2V38.2c0-1.1,0.9-2,2-2s2,0.9,2,2v31.2C80.1,70.6,79.2,71.5,78,71.5z"/>
	</g>
	<g>
		<path class="st0" d="M62.5,101.5c-0.4,0-0.9-0.1-1.2-0.4c-0.9-0.7-1-1.9-0.3-2.8L72.8,83c0.7-0.9,1.9-1,2.8-0.3c0.9,0.7,1,1.9,0.3,2.8
			l-11.9,15.2C63.7,101.2,63.1,101.5,62.5,101.5z"/>
	</g>
</g>
</svg>
