<?xml version="1.0" encoding="utf-8"?>
<!-- Generator: Adobe Illustrator 19.0.1, SVG Export Plug-In . SVG Version: 6.00 Build 0)  -->
<svg version="1.1" id="Layer_2" xmlns="http://www.w3.org/2000/svg" xmlns:xlink="http://www.w3.org/1999/xlink" x="0px" y="0px"
	 viewBox="0 0 224 224" style="enable-background:new 0 0 224 224;" xml:space="preserve">
<style type="text/css">
	.st0{fill:#ffffff;}
</style>
<g>
	<g>
		<path class="st0" d="M212.2,159.9c-1.1,0-2-0.9-2-1.9c-1.6-55.2-44.9-98.4-98.5-98.4c-53.6,0-96.8,43.2-98.5,98.4
			c0,1.1-0.9,2-2.1,1.9c-1.1,0-2-1-1.9-2.1c0.8-27.5,11.8-53.2,31-72.4c19.2-19.3,44.6-29.9,71.4-29.9s52.2,10.6,71.5,29.9
			c19.2,19.2,30.2,44.9,31,72.4C214.2,158.9,213.3,159.9,212.2,159.9C212.2,159.9,212.2,159.9,212.2,159.9z"/>
	</g>
	<g>
		<path class="st0" d="M202.9,187H24.5c-2.3,0-4.5-1-6-2.8L1.2,164c-1.3-1.5-1.5-3.5-0.7-5.2c0.8-1.8,2.5-2.9,4.5-2.9h214.1
			c1.8,0,3.5,1,4.4,2.6c0.8,1.6,0.7,3.5-0.3,5l-13.7,20C208,185.7,205.6,187,202.9,187z M5,159.9c-0.6,0-0.8,0.4-0.9,0.5
			c-0.1,0.2-0.2,0.6,0.1,1l17.3,20.3c0.7,0.9,1.8,1.4,3,1.4h178.5c1.3,0,2.5-0.6,3.2-1.7l13.7-20c0.3-0.4,0.1-0.7,0.1-0.9
			c-0.1-0.2-0.3-0.5-0.8-0.5H5z"/>
	</g>
	<g>
		<path class="st0" d="M128.4,61c-0.1,0-0.2,0-0.3,0c-1.1-0.1-1.9-1.1-1.7-2.2c0.1-0.7,0.1-1.4,0.1-2.1c0-8.6-6.6-15.6-14.8-15.6
			c-8.2,0-14.8,7-14.8,15.6c0,0.7,0,1.4,0.1,2.1c0.1,1.1-0.6,2.1-1.7,2.2c-1.1,0.1-2.1-0.6-2.2-1.7c-0.1-0.9-0.2-1.7-0.2-2.6
			c0-10.8,8.4-19.6,18.8-19.6s18.8,8.8,18.8,19.6c0,0.9-0.1,1.8-0.2,2.6C130.2,60.2,129.4,61,128.4,61z"/>
	</g>
	<g>
		<path class="st0" d="M32.6,144.1c-0.1,0-0.1,0-0.2,0c-1.1-0.1-1.9-1-1.8-2.1c0.1-1.5,3.2-36.7,40.5-59.3c0.9-0.6,2.2-0.3,2.7,0.7
			c0.6,0.9,0.3,2.2-0.7,2.7c-35.5,21.5-38.5,55.9-38.6,56.2C34.6,143.3,33.7,144.1,32.6,144.1z"/>
	</g>
	<g>
		<path class="st0" d="M90.9,78.4c-0.9,0-1.7-0.6-1.9-1.4c-0.3-1.1,0.3-2.2,1.3-2.5c0.5-0.1,11.4-3.3,23.4-2.6
			c1.1,0.1,1.9,1,1.9,2.1s-1,1.9-2.1,1.9c-11.3-0.7-21.9,2.4-22,2.4C91.3,78.4,91.1,78.4,90.9,78.4z"/>
	</g>
</g>
</svg>
