<svg width="24" height="24" xmlns="http://www.w3.org/2000/svg">

 <g>
  <title>background</title>
  <rect fill="none" id="canvas_background" height="402" width="582" y="-1" x="-1"/>
 </g>
 <g>
  <title>Layer 1</title>
  <path fill="#05bb82" id="svg_1" d="m12,0c-6.627,0 -12,5.373 -12,12s5.373,12 12,12s12,-5.373 12,-12s-5.373,-12 -12,-12zm3,8l-1.35,0c-0.538,0 -0.65,0.221 -0.65,0.778l0,1.222l2,0l-0.209,2l-1.791,0l0,7l-3,0l0,-7l-2,0l0,-2l2,0l0,-2.308c0,-1.769 0.931,-2.692 3.029,-2.692l1.971,0l0,3z"/>
 </g>
</svg>