<svg width="24" height="24" xmlns="http://www.w3.org/2000/svg">

 <g>
  <title>background</title>
  <rect fill="none" id="canvas_background" height="402" width="582" y="-1" x="-1"/>
 </g>
 <g>
  <title>Layer 1</title>
  <path fill="#05bb82" id="svg_1" d="m17.833,6.595l0,1.476c0,0.237 -0.193,0.429 -0.435,0.429l-1.465,0c-0.238,0 -0.434,-0.192 -0.434,-0.429l0,-1.476c0,-0.237 0.195,-0.428 0.434,-0.428l1.465,0c0.242,0 0.435,0.191 0.435,0.428zm-5.833,7.498c1.121,0 2.028,-0.908 2.028,-2.029s-0.907,-2.029 -2.028,-2.029s-2.028,0.908 -2.028,2.029s0.907,2.029 2.028,2.029zm12,-2.093c0,6.627 -5.373,12 -12,12s-12,-5.373 -12,-12s5.373,-12 12,-12s12,5.373 12,12zm-5,-1.75l-3.953,0c0.316,0.533 0.508,1.149 0.508,1.813c0,1.968 -1.596,3.564 -3.563,3.564c-1.969,0 -3.564,-1.596 -3.564,-3.564c0,-0.665 0.191,-1.281 0.509,-1.813l-3.937,0l0,5.996c0,1.521 1.27,2.754 2.791,2.754l8.454,0c1.521,0 2.755,-1.233 2.755,-2.754l0,-5.996zm-7.009,4.559c1.515,0 2.745,-1.232 2.745,-2.746c0,-0.822 -0.364,-1.56 -0.937,-2.063c-0.202,-0.177 -0.429,-0.324 -0.677,-0.437c-0.346,-0.157 -0.729,-0.245 -1.132,-0.245c-0.405,0 -0.788,0.088 -1.133,0.245c-0.246,0.112 -0.474,0.26 -0.675,0.437c-0.574,0.503 -0.938,1.242 -0.938,2.063c0.001,1.514 1.234,2.746 2.747,2.746zm7.009,-7.055c0,-1.521 -1.234,-2.754 -2.755,-2.754l-7.162,0l0,2.917l-0.583,0l0,-2.917l-0.583,0l0,2.917l-0.584,0l0,-2.872c-0.202,0.033 -0.397,0.083 -0.583,0.157l0,2.715l-0.583,0l0,-2.393c-0.702,0.5 -1.167,1.31 -1.167,2.23l0,1.913l4.359,0c0.681,-0.748 1.633,-1.167 2.632,-1.167c1.004,0 1.954,0.422 2.631,1.167l4.378,0l0,-1.913z"/>
 </g>
</svg>