<svg width="24" height="24" xmlns="http://www.w3.org/2000/svg">

 <g>
  <title>background</title>
  <rect fill="none" id="canvas_background" height="402" width="582" y="-1" x="-1"/>
 </g>
 <g>
  <title>Layer 1</title>
  <path fill="#05bb82" id="svg_1" d="m12,0c-6.627,0 -12,5.373 -12,12s5.373,12 12,12s12,-5.373 12,-12s-5.373,-12 -12,-12zm6.344,16.163l-1.867,0c-1.055,0 -1.232,-0.601 -2.102,-1.469c-0.785,-0.785 -1.22,-0.183 -1.202,0.935c0.006,0.297 -0.141,0.534 -0.495,0.534c-1.105,0 -2.694,0.156 -4.304,-1.58c-1.647,-1.779 -3.374,-5.348 -3.374,-5.699c0,-0.208 0.172,-0.301 0.459,-0.301l1.898,0c0.503,0 0.545,0.249 0.686,0.568c0.584,1.331 1.981,4.002 2.354,2.511c0.214,-0.856 0.301,-2.839 -0.615,-3.01c-0.52,-0.096 0.396,-0.652 1.722,-0.652c0.33,0 0.688,0.035 1.054,0.12c0.673,0.156 0.676,0.458 0.666,0.898c-0.034,1.666 -0.235,2.786 0.204,3.069c0.419,0.271 1.521,-1.502 2.104,-2.871c0.159,-0.378 0.191,-0.632 0.643,-0.632l2.322,0c1.216,0 -0.159,1.748 -1.21,3.112c-0.847,1.099 -0.802,1.12 0.183,2.034c0.701,0.651 1.53,1.54 1.53,2.043c0,0.238 -0.186,0.39 -0.656,0.39z"/>
 </g>
</svg>